<svg width="100%" viewBox="0 0 3294.000 712.000"
  preserveAspectRatio="xMinYMin meet"
  version="1.1" xmlns="http://www.w3.org/2000/svg">

<g id="page content">
    <path d="M 985.000 289.000  C 985.000 289.000 990.385 285.967 993.000 285.000 C 995.615 284.033 998.417 282.592 1001.000 283.000 C 1003.583 283.408 1009.000 288.000 1009.000 288.000" style="stroke:rgb(0,0,0); fill:none; stroke-linecap:round; stroke-linejoin:round; stroke-width:10.000; stroke-miterlimit:1.000;" />
    <path d="M 569.000 355.000  C 569.000 355.000 573.896 352.404 577.000 352.000 C 580.104 351.596 583.967 352.632 587.000 353.000 C 589.544 353.309 591.683 354.158 594.000 354.000 C 596.351 353.839 598.327 352.488 601.000 352.000 C 604.438 351.372 608.845 351.025 613.000 351.000 C 617.486 350.973 622.628 352.237 627.000 352.000 C 630.902 351.788 634.444 350.854 638.000 350.000 C 641.436 349.175 644.739 347.850 648.000 347.000 C 651.064 346.201 653.982 345.331 657.000 345.000 C 659.982 344.673 663.195 345.199 666.000 345.000 C 668.486 344.823 670.661 344.166 673.000 344.000 C 675.327 343.835 677.594 343.850 680.000 344.000 C 682.583 344.161 685.417 344.839 688.000 345.000 C 690.406 345.150 692.594 345.150 695.000 345.000 C 697.583 344.839 700.249 344.171 703.000 344.000 C 705.906 343.819 709.018 344.327 712.000 344.000 C 715.018 343.669 717.906 342.497 721.000 342.000 C 724.231 341.481 727.849 341.157 731.000 341.000 C 733.812 340.860 736.429 341.183 739.000 341.000 C 741.418 340.828 743.601 340.470 746.000 340.000 C 748.590 339.493 751.410 338.507 754.000 338.000 C 756.590 337.493 761.000 337.000 761.000 337.000" style="stroke:rgb(0,0,0); fill:none; stroke-linecap:round; stroke-linejoin:round; stroke-width:10.000; stroke-miterlimit:1.000;" />
    <path d="M 1436.000 100.000  C 1436.000 100.000 1419.898 114.885 1420.000 115.000 C 1420.102 115.115 1429.172 106.365 1433.000 104.000 C 1435.560 102.418 1438.679 100.257 1440.000 101.000 C 1441.273 101.715 1441.158 105.683 1441.000 108.000 C 1440.839 110.351 1439.330 112.643 1439.000 115.000 C 1438.676 117.311 1439.000 119.667 1439.000 122.000 C 1439.000 124.333 1439.000 126.266 1439.000 129.000 C 1439.000 132.866 1438.842 138.256 1439.000 143.000 C 1439.164 147.916 1440.130 152.850 1440.000 158.000 C 1439.861 163.496 1439.016 169.451 1438.000 175.000 C 1437.003 180.447 1434.567 184.741 1434.000 191.000 C 1433.223 199.590 1436.000 211.667 1436.000 222.000 C 1436.000 232.333 1435.005 243.945 1434.000 253.000 C 1433.209 260.125 1432.323 265.700 1431.000 272.000 C 1429.663 278.367 1426.993 284.702 1426.000 291.000 C 1425.049 297.033 1424.780 303.283 1425.000 309.000 C 1425.202 314.238 1426.103 319.302 1427.000 324.000 C 1427.811 328.247 1429.333 332.062 1430.000 336.000 C 1430.630 339.722 1431.000 343.333 1431.000 347.000 C 1431.000 350.667 1430.170 354.250 1430.000 358.000 C 1429.823 361.909 1430.462 365.947 1430.000 370.000 C 1429.513 374.274 1428.312 378.712 1427.000 383.000 C 1425.659 387.381 1423.174 391.694 1422.000 396.000 C 1420.903 400.024 1420.317 404.170 1420.000 408.000 C 1419.713 411.473 1419.864 414.451 1420.000 418.000 C 1420.156 422.052 1420.849 427.061 1421.000 431.000 C 1421.126 434.272 1420.866 436.788 1421.000 440.000 C 1421.155 443.716 1421.841 448.179 1422.000 452.000 C 1422.145 455.482 1422.136 458.451 1422.000 462.000 C 1421.844 466.052 1421.534 470.861 1421.000 475.000 C 1420.505 478.833 1419.315 482.504 1419.000 486.000 C 1418.717 489.137 1419.166 492.005 1419.000 495.000 C 1418.834 498.005 1418.460 500.858 1418.000 504.000 C 1417.489 507.491 1416.495 511.167 1416.000 515.000 C 1415.466 519.139 1415.348 523.849 1415.000 528.000 C 1414.679 531.821 1414.497 535.344 1414.000 539.000 C 1413.500 542.678 1413.120 546.110 1412.000 550.000 C 1410.654 554.677 1407.678 560.950 1406.000 565.000 C 1404.848 567.781 1404.000 569.667 1403.000 572.000 C 1402.000 574.333 1400.000 579.000 1400.000 579.000" style="stroke:rgb(0,0,0); fill:none; stroke-linecap:round; stroke-linejoin:round; stroke-width:10.000; stroke-miterlimit:1.000;" />
    <path d="M 1364.000 290.000  C 1364.000 290.000 1350.481 314.092 1346.000 324.000 C 1341.519 333.908 1338.565 342.489 1335.000 353.000 C 1330.863 365.196 1327.794 380.269 1323.000 393.000 C 1318.398 405.221 1311.204 417.327 1307.000 428.000 C 1303.591 436.653 1301.177 445.206 1299.000 452.000 C 1297.404 456.982 1296.505 461.244 1295.000 465.000 C 1293.495 468.756 1291.000 473.000 1291.000 473.000" style="stroke:rgb(0,0,0); fill:none; stroke-linecap:round; stroke-linejoin:round; stroke-width:10.000; stroke-miterlimit:1.000;" />
    <path d="M 391.000 589.000  C 391.000 589.000 396.656 575.077 398.000 571.000 C 399.344 566.923 399.661 563.839 401.000 560.000 C 402.547 555.563 404.934 549.951 407.000 546.000 C 408.626 542.890 410.832 540.852 412.000 538.000 C 413.154 535.181 412.810 531.983 414.000 529.000 C 415.338 525.645 418.286 522.297 420.000 519.000 C 421.575 515.970 422.491 513.197 424.000 510.000 C 425.761 506.269 427.826 502.208 430.000 498.000 C 432.447 493.263 435.378 487.698 438.000 483.000 C 440.370 478.753 442.392 474.597 445.000 471.000 C 447.428 467.651 449.837 465.894 453.000 462.000 C 458.283 455.495 468.729 441.957 473.000 435.000 C 475.464 430.987 476.256 428.109 478.000 425.000 C 479.602 422.144 481.625 419.630 483.000 417.000 C 484.235 414.637 484.765 412.363 486.000 410.000 C 487.375 407.370 489.031 404.475 491.000 402.000 C 493.017 399.465 495.661 397.613 498.000 395.000 C 500.660 392.028 503.000 388.000 506.000 385.000 C 509.000 382.000 512.660 379.241 516.000 377.000 C 518.995 374.991 521.872 373.487 525.000 372.000 C 528.199 370.479 531.970 369.255 535.000 368.000 C 537.548 366.945 539.667 366.000 542.000 365.000 C 544.333 364.000 546.506 363.275 549.000 362.000 C 552.087 360.422 555.623 356.935 559.000 356.000 C 561.966 355.178 565.195 355.801 568.000 356.000 C 570.486 356.177 572.548 356.421 575.000 357.000 C 577.840 357.671 581.072 359.147 584.000 360.000 C 586.730 360.795 589.296 361.069 592.000 362.000 C 594.955 363.018 598.045 364.983 601.000 366.000 C 603.704 366.931 606.355 366.830 609.000 368.000 C 612.029 369.340 614.838 371.940 618.000 374.000 C 621.471 376.261 625.374 378.219 629.000 381.000 C 633.051 384.108 636.958 388.467 641.000 392.000 C 644.960 395.461 649.438 399.526 653.000 402.000 C 655.559 403.777 657.511 404.191 660.000 406.000 C 663.380 408.456 667.674 413.315 671.000 416.000 C 673.530 418.042 675.409 419.132 678.000 421.000 C 681.259 423.349 685.647 427.094 689.000 429.000 C 691.509 430.426 693.699 430.854 696.000 432.000 C 698.367 433.179 700.483 434.269 703.000 436.000 C 706.342 438.299 710.709 442.482 714.000 445.000 C 716.561 446.959 718.280 448.362 721.000 450.000 C 724.397 452.045 729.479 454.631 733.000 456.000 C 735.593 457.009 737.364 457.185 740.000 458.000 C 743.474 459.075 747.912 460.690 752.000 462.000 C 756.239 463.358 760.709 465.536 765.000 466.000 C 769.037 466.436 772.697 465.803 777.000 465.000 C 782.220 464.025 789.115 461.691 794.000 460.000 C 797.808 458.682 800.095 457.562 804.000 456.000 C 809.523 453.791 819.298 451.330 824.000 448.000 C 827.303 445.661 828.432 442.589 831.000 440.000 C 833.734 437.245 836.110 435.551 840.000 432.000 C 847.424 425.222 863.955 408.653 872.000 402.000 C 876.480 398.295 878.667 397.703 883.000 394.000 C 890.393 387.683 904.372 373.324 911.000 366.000 C 914.971 361.612 916.231 359.344 920.000 355.000 C 925.828 348.285 936.057 337.678 943.000 330.000 C 948.846 323.535 952.559 319.743 959.000 312.000 C 969.855 298.950 989.101 271.799 1001.000 258.000 C 1008.934 248.799 1015.855 242.527 1022.000 236.000 C 1026.870 230.827 1030.760 226.195 1035.000 222.000 C 1039.240 217.805 1046.000 212.000 1046.000 212.000" style="stroke:rgb(0,0,0); fill:none; stroke-linecap:round; stroke-linejoin:round; stroke-width:10.000; stroke-miterlimit:1.000;" />
    <path d="M 2400.000 592.000  C 2400.000 592.000 2404.802 586.995 2407.000 586.000 C 2409.198 585.005 2411.587 585.323 2414.000 585.000 C 2416.576 584.655 2419.128 584.440 2422.000 584.000 C 2425.382 583.482 2429.322 582.164 2433.000 582.000 C 2436.656 581.837 2440.119 582.547 2444.000 583.000 C 2448.392 583.513 2452.520 584.414 2458.000 585.000 C 2465.720 585.826 2479.021 586.402 2486.000 587.000 C 2490.176 587.358 2492.447 587.959 2496.000 588.000 C 2500.048 588.046 2504.583 587.170 2509.000 587.000 C 2513.577 586.824 2518.256 587.158 2523.000 587.000 C 2527.916 586.836 2533.110 586.683 2538.000 586.000 C 2542.772 585.333 2547.471 584.347 2552.000 583.000 C 2556.467 581.671 2560.667 579.667 2565.000 578.000 C 2569.333 576.333 2572.714 574.362 2578.000 573.000 C 2585.664 571.026 2599.423 569.838 2607.000 569.000 C 2611.860 568.463 2615.179 568.159 2619.000 568.000 C 2622.482 567.855 2625.759 568.180 2629.000 568.000 C 2632.084 567.829 2635.013 566.839 2638.000 567.000 C 2641.014 567.163 2643.906 568.503 2647.000 569.000 C 2650.230 569.519 2653.662 569.833 2657.000 570.000 C 2660.329 570.166 2663.527 570.287 2667.000 570.000 C 2670.830 569.683 2675.188 568.699 2679.000 568.000 C 2682.491 567.360 2684.977 566.051 2689.000 566.000 C 2695.087 565.923 2705.913 568.862 2712.000 570.000 C 2716.023 570.752 2718.844 571.885 2722.000 572.000 C 2724.807 572.103 2727.348 571.495 2730.000 571.000 C 2732.682 570.499 2735.194 569.771 2738.000 569.000 C 2741.157 568.132 2744.647 566.836 2748.000 566.000 C 2751.314 565.173 2754.570 564.340 2758.000 564.000 C 2761.562 563.647 2765.282 563.542 2769.000 564.000 C 2772.942 564.485 2777.117 565.812 2781.000 567.000 C 2784.777 568.156 2788.333 569.667 2792.000 571.000 C 2795.667 572.333 2799.192 574.329 2803.000 575.000 C 2806.855 575.679 2811.187 575.190 2815.000 575.000 C 2818.490 574.826 2821.791 574.686 2825.000 574.000 C 2828.117 573.333 2830.882 571.667 2834.000 571.000 C 2837.209 570.314 2840.587 570.015 2844.000 570.000 C 2847.579 569.984 2851.253 570.986 2855.000 571.000 C 2858.912 571.015 2862.928 570.482 2867.000 570.000 C 2871.255 569.496 2875.573 568.339 2880.000 568.000 C 2884.567 567.651 2889.631 567.606 2894.000 568.000 C 2897.904 568.352 2901.322 569.500 2905.000 570.000 C 2908.656 570.497 2912.176 570.827 2916.000 571.000 C 2920.148 571.188 2924.670 571.166 2929.000 571.000 C 2933.337 570.833 2937.608 570.637 2942.000 570.000 C 2946.603 569.333 2951.188 568.117 2956.000 567.000 C 2961.165 565.801 2966.819 564.015 2972.000 563.000 C 2976.798 562.060 2981.535 560.770 2986.000 561.000 C 2990.176 561.215 2994.575 562.846 2998.000 564.000 C 3001.425 565.154 3005.000 567.000 3005.000 567.000" style="stroke:rgb(0,0,0); fill:none; stroke-linecap:round; stroke-linejoin:round; stroke-width:10.000; stroke-miterlimit:1.000;" />
    <path d="M 2551.000 413.000  C 2551.000 413.000 2556.509 413.489 2560.000 414.000 C 2563.491 414.511 2567.424 415.317 2571.000 416.000 C 2574.576 416.683 2581.000 418.000 2581.000 418.000" style="stroke:rgb(0,0,0); fill:none; stroke-linecap:round; stroke-linejoin:round; stroke-width:10.000; stroke-miterlimit:1.000;" />
    <path d="M 2437.000 579.000  C 2437.000 579.000 2442.448 567.782 2446.000 562.000 C 2449.552 556.218 2454.857 549.426 2458.000 545.000 C 2460.021 542.154 2461.682 540.589 2463.000 538.000 C 2464.384 535.281 2464.532 531.801 2466.000 529.000 C 2467.507 526.124 2470.369 524.014 2472.000 521.000 C 2473.765 517.740 2474.514 513.638 2476.000 510.000 C 2477.510 506.304 2478.194 503.852 2481.000 499.000 C 2487.519 487.729 2511.240 455.786 2519.000 446.000 C 2522.133 442.049 2524.095 440.673 2526.000 438.000 C 2527.658 435.672 2528.330 433.650 2530.000 431.000 C 2532.339 427.288 2535.861 421.516 2539.000 418.000 C 2541.573 415.117 2544.333 413.333 2547.000 411.000 C 2549.667 408.667 2552.260 406.417 2555.000 404.000 C 2557.917 401.428 2560.761 398.788 2564.000 396.000 C 2567.689 392.824 2571.743 389.123 2576.000 386.000 C 2580.394 382.776 2585.795 380.021 2590.000 377.000 C 2593.688 374.350 2596.803 370.650 2600.000 369.000 C 2602.411 367.756 2604.723 367.959 2607.000 367.000 C 2609.396 365.991 2611.428 364.884 2614.000 363.000 C 2617.810 360.209 2622.945 354.191 2627.000 351.000 C 2630.170 348.505 2632.308 346.576 2636.000 345.000 C 2640.820 342.943 2649.206 342.132 2654.000 341.000 C 2657.206 340.243 2659.162 339.349 2662.000 339.000 C 2665.125 338.615 2669.019 338.388 2672.000 339.000 C 2674.602 339.534 2676.733 340.725 2679.000 342.000 C 2681.409 343.356 2683.670 345.027 2686.000 347.000 C 2688.672 349.263 2691.221 352.085 2694.000 355.000 C 2697.186 358.341 2699.698 361.349 2704.000 366.000 C 2711.624 374.242 2726.314 392.461 2736.000 400.000 C 2742.432 405.007 2748.775 406.890 2754.000 410.000 C 2758.158 412.475 2761.771 414.822 2765.000 417.000 C 2767.623 418.769 2769.591 420.644 2772.000 422.000 C 2774.266 423.275 2776.524 423.919 2779.000 425.000 C 2781.816 426.229 2784.775 428.161 2788.000 429.000 C 2791.415 429.888 2795.750 430.083 2799.000 430.000 C 2801.600 429.933 2803.583 429.172 2806.000 429.000 C 2808.571 428.817 2810.763 429.399 2814.000 429.000 C 2819.197 428.360 2827.105 425.761 2834.000 424.000 C 2841.404 422.109 2849.310 420.819 2857.000 418.000 C 2865.306 414.955 2875.946 410.028 2882.000 406.000 C 2885.990 403.346 2887.247 401.231 2891.000 398.000 C 2897.045 392.796 2908.089 383.841 2915.000 378.000 C 2920.309 373.513 2924.259 370.087 2929.000 366.000 C 2933.919 361.760 2938.078 358.049 2944.000 353.000 C 2952.455 345.792 2967.154 334.969 2975.000 327.000 C 2980.601 321.311 2983.297 316.215 2988.000 311.000 C 2992.927 305.537 2998.982 300.924 3004.000 295.000 C 3009.359 288.674 3013.734 280.921 3019.000 274.000 C 3024.388 266.918 3028.534 261.293 3036.000 253.000 C 3048.198 239.451 3075.665 213.763 3087.000 202.000 C 3092.834 195.946 3095.757 192.583 3100.000 188.000 C 3104.083 183.589 3107.085 180.733 3112.000 175.000 C 3116.915 169.267 3147.000 131.000 3147.000 131.000" style="stroke:rgb(0,0,0); fill:none; stroke-linecap:round; stroke-linejoin:round; stroke-width:10.000; stroke-miterlimit:1.000;" />
    <path d="M 2726.000 389.000  C 2726.000 389.000 2732.883 388.667 2736.000 388.000 C 2739.117 387.333 2742.056 385.668 2745.000 385.000 C 2747.714 384.384 2750.254 384.019 2753.000 384.000 C 2755.746 383.981 2762.000 385.000 2762.000 385.000" style="stroke:rgb(0,0,0); fill:none; stroke-linecap:round; stroke-linejoin:round; stroke-width:10.000; stroke-miterlimit:1.000;" />
    <path d="M 2929.000 381.000  C 2929.000 381.000 2939.343 377.400 2942.000 377.000 C 2944.657 376.600 2946.594 376.850 2949.000 377.000 C 2951.583 377.161 2954.333 377.667 2957.000 378.000 C 2959.667 378.333 2965.000 379.000 2965.000 379.000" style="stroke:rgb(0,0,0); fill:none; stroke-linecap:round; stroke-linejoin:round; stroke-width:10.000; stroke-miterlimit:1.000;" />
    <path d="M 2361.000 317.000  C 2361.000 317.000 2368.296 312.701 2368.000 312.000 C 2367.704 311.299 2360.597 312.302 2357.000 314.000 C 2352.561 316.096 2347.256 321.006 2344.000 325.000 C 2341.207 328.426 2339.652 331.398 2338.000 336.000 C 2335.598 342.690 2331.994 355.708 2333.000 362.000 C 2333.627 365.924 2335.810 368.489 2338.000 371.000 C 2340.158 373.475 2343.330 375.456 2346.000 377.000 C 2348.330 378.347 2350.344 379.328 2353.000 380.000 C 2356.199 380.809 2359.723 381.655 2364.000 381.000 C 2370.562 379.994 2382.087 374.448 2388.000 371.000 C 2391.915 368.717 2394.333 366.667 2397.000 364.000 C 2399.667 361.333 2401.901 358.330 2404.000 355.000 C 2406.276 351.388 2408.366 347.312 2410.000 343.000 C 2411.757 338.361 2412.984 332.848 2414.000 328.000 C 2414.935 323.538 2416.091 319.042 2416.000 315.000 C 2415.920 311.441 2415.643 307.542 2414.000 305.000 C 2412.491 302.666 2409.547 300.645 2407.000 300.000 C 2404.534 299.376 2401.661 300.131 2399.000 301.000 C 2395.993 301.982 2393.142 303.962 2390.000 306.000 C 2386.207 308.460 2380.976 311.954 2378.000 315.000 C 2375.024 318.046 2373.000 322.000 2373.000 322.000" style="stroke:rgb(0,0,0); fill:none; stroke-linecap:round; stroke-linejoin:round; stroke-width:10.000; stroke-miterlimit:1.000;" />
    <path d="M 1959.000 406.000  C 1959.000 406.000 1963.635 406.000 1968.000 406.000 C 1972.365 406.000 1978.779 406.000 1983.000 406.000 C 1986.082 406.000 1988.185 406.000 1991.000 406.000 C 1994.148 406.000 1997.591 405.845 2001.000 406.000 C 2004.583 406.163 2008.743 406.852 2012.000 407.000 C 2015.257 407.148 2019.000 407.000 2019.000 407.000" style="stroke:rgb(0,0,0); fill:none; stroke-linecap:round; stroke-linejoin:round; stroke-width:10.000; stroke-miterlimit:1.000;" />
    <path d="M 1504.000 481.000  C 1504.000 481.000 1510.417 481.163 1514.000 481.000 C 1517.583 480.837 1521.333 480.000 1525.000 480.000 C 1528.667 480.000 1532.627 481.057 1536.000 481.000 C 1538.881 480.952 1541.183 480.035 1544.000 480.000 C 1546.817 479.965 1554.000 481.000 1554.000 481.000" style="stroke:rgb(0,0,0); fill:none; stroke-linecap:round; stroke-linejoin:round; stroke-width:10.000; stroke-miterlimit:1.000;" />
    <path d="M 329.000 594.000  C 329.000 594.000 333.849 593.843 337.000 594.000 C 340.151 594.157 343.791 594.314 347.000 595.000 C 350.118 595.667 353.160 597.329 356.000 598.000 C 358.452 598.579 360.400 598.933 363.000 599.000 C 366.250 599.083 370.179 598.027 374.000 598.000 C 378.151 597.971 382.765 598.485 387.000 599.000 C 391.091 599.497 395.393 600.701 399.000 601.000 C 401.925 601.242 404.339 600.834 407.000 601.000 C 409.672 601.166 412.254 601.981 415.000 602.000 C 417.911 602.020 420.916 601.171 424.000 601.000 C 427.241 600.820 430.754 601.000 434.000 601.000 C 437.079 601.000 439.921 601.000 443.000 601.000 C 446.246 601.000 449.858 600.804 453.000 601.000 C 455.821 601.176 458.418 601.839 461.000 602.000 C 463.406 602.150 465.407 601.882 468.000 602.000 C 471.257 602.148 475.417 602.837 479.000 603.000 C 482.409 603.155 485.852 603.000 489.000 603.000 C 491.815 603.000 494.125 602.870 497.000 603.000 C 500.379 603.153 504.514 603.842 508.000 604.000 C 511.147 604.143 513.850 604.000 517.000 604.000 C 520.483 604.000 524.425 604.178 528.000 604.000 C 531.417 603.830 533.684 603.706 538.000 603.000 C 546.157 601.665 565.123 596.333 573.000 595.000 C 576.956 594.331 578.995 594.166 582.000 594.000 C 584.995 593.834 587.579 593.787 591.000 594.000 C 595.579 594.285 601.787 594.984 607.000 596.000 C 612.115 596.997 617.470 599.406 622.000 600.000 C 625.636 600.476 628.671 599.834 632.000 600.000 C 635.337 600.166 638.510 600.826 642.000 601.000 C 645.813 601.190 650.000 601.000 654.000 601.000 C 658.000 601.000 662.308 601.405 666.000 601.000 C 669.236 600.645 672.179 599.514 675.000 599.000 C 677.471 598.550 679.587 598.021 682.000 598.000 C 684.576 597.977 687.193 598.545 690.000 599.000 C 693.156 599.512 696.949 600.698 700.000 601.000 C 702.527 601.250 704.235 601.183 707.000 601.000 C 711.066 600.730 717.516 599.747 722.000 599.000 C 725.681 598.387 728.312 597.490 732.000 597.000 C 736.477 596.406 742.385 596.154 747.000 596.000 C 750.948 595.869 754.631 595.790 758.000 596.000 C 760.885 596.180 763.193 596.545 766.000 597.000 C 769.156 597.512 772.654 598.836 776.000 599.000 C 779.321 599.162 782.750 598.162 786.000 598.000 C 789.075 597.847 792.188 598.000 795.000 598.000 C 797.480 598.000 799.520 598.000 802.000 598.000 C 804.812 598.000 808.005 597.834 811.000 598.000 C 814.005 598.166 817.191 599.044 820.000 599.000 C 822.482 598.961 824.514 598.177 827.000 598.000 C 829.805 597.801 832.573 598.107 836.000 598.000 C 840.573 597.857 846.437 597.320 852.000 597.000 C 857.563 596.680 871.000 596.000 871.000 596.000" style="stroke:rgb(0,0,0); fill:none; stroke-linecap:round; stroke-linejoin:round; stroke-width:10.000; stroke-miterlimit:1.000;" />
    <path d="M 2795.000 422.000  C 2795.000 422.000 2800.045 421.017 2803.000 420.000 C 2805.955 418.983 2808.716 416.986 2812.000 416.000 C 2815.650 414.904 2820.555 413.805 2824.000 414.000 C 2827.445 414.195 2831.000 416.000 2831.000 416.000" style="stroke:rgb(0,0,0); fill:none; stroke-linecap:round; stroke-linejoin:round; stroke-width:10.000; stroke-miterlimit:1.000;" />
    <path d="M 388.000 115.000  C 388.000 115.000 383.719 116.923 381.000 119.000 C 378.281 121.077 376.069 124.043 373.000 127.000 C 369.012 130.843 363.500 135.500 359.000 140.000 C 354.500 144.500 350.137 149.927 346.000 154.000 C 342.528 157.418 336.874 163.573 336.000 163.000 C 335.266 162.519 337.162 156.335 339.000 154.000 C 340.833 151.672 344.371 150.803 347.000 149.000 C 349.707 147.144 352.066 144.649 355.000 143.000 C 358.045 141.289 361.801 140.521 365.000 139.000 C 368.128 137.513 370.845 135.331 374.000 134.000 C 377.177 132.660 380.843 131.073 384.000 131.000 C 386.806 130.935 391.989 133.043 392.000 133.000 C 392.011 132.960 386.391 130.056 385.000 131.000 C 383.366 132.110 384.320 137.513 384.000 141.000 C 383.650 144.816 383.350 149.184 383.000 153.000 C 382.680 156.486 382.497 159.679 382.000 163.000 C 381.499 166.346 380.497 169.574 380.000 173.000 C 379.483 176.566 379.630 180.278 379.000 184.000 C 378.333 187.938 376.667 191.973 376.000 196.000 C 375.342 199.973 374.949 204.289 375.000 208.000 C 375.044 211.218 375.829 213.916 376.000 217.000 C 376.179 220.241 376.000 223.515 376.000 227.000 C 376.000 230.818 375.843 234.923 376.000 239.000 C 376.163 243.250 376.837 247.750 377.000 252.000 C 377.157 256.077 377.177 260.091 377.000 264.000 C 376.830 267.750 376.166 271.329 376.000 275.000 C 375.834 278.663 376.178 282.425 376.000 286.000 C 375.830 289.417 375.333 292.667 375.000 296.000 C 374.667 299.333 374.170 302.583 374.000 306.000 C 373.822 309.575 374.000 313.421 374.000 317.000 C 374.000 320.413 374.000 323.587 374.000 327.000 C 374.000 330.579 373.844 334.257 374.000 338.000 C 374.163 341.916 375.000 346.000 375.000 350.000 C 375.000 354.000 374.013 357.919 374.000 362.000 C 373.986 366.246 374.652 370.849 375.000 375.000 C 375.321 378.821 375.830 382.250 376.000 386.000 C 376.177 389.909 376.000 393.846 376.000 398.000 C 376.000 402.487 375.834 407.336 376.000 412.000 C 376.167 416.670 377.042 421.616 377.000 426.000 C 376.962 429.889 375.984 433.421 376.000 437.000 C 376.015 440.414 376.838 443.751 377.000 447.000 C 377.153 450.075 377.000 452.850 377.000 456.000 C 377.000 459.483 377.178 463.425 377.000 467.000 C 376.830 470.417 376.157 473.849 376.000 477.000 C 375.860 479.812 376.000 482.255 376.000 485.000 C 376.000 487.912 376.418 490.879 376.000 494.000 C 375.530 497.513 373.667 501.304 373.000 505.000 C 372.344 508.638 372.761 512.671 372.000 516.000 C 371.331 518.928 369.669 521.072 369.000 524.000 C 368.239 527.329 368.170 531.250 368.000 535.000 C 367.823 538.909 368.177 543.091 368.000 547.000 C 367.830 550.750 366.917 554.750 367.000 558.000 C 367.067 560.600 367.685 562.518 368.000 565.000 C 368.357 567.809 368.667 571.000 369.000 574.000 C 369.333 577.000 369.555 579.791 370.000 583.000 C 370.516 586.719 371.875 591.174 372.000 595.000 C 372.114 598.477 371.368 601.967 371.000 605.000 C 370.632 608.033 370.000 612.000 370.000 612.000" style="stroke:rgb(0,0,0); fill:none; stroke-linecap:round; stroke-linejoin:round; stroke-width:10.000; stroke-miterlimit:1.000;" />
    <path d="M 2510.000 468.000  C 2510.000 468.000 2514.417 468.161 2517.000 468.000 C 2519.583 467.839 2522.417 467.161 2525.000 467.000 C 2527.406 466.850 2529.594 467.150 2532.000 467.000 C 2534.406 466.850 2540.000 466.000 2540.000 466.000" style="stroke:rgb(0,0,0); fill:none; stroke-linecap:round; stroke-linejoin:round; stroke-width:10.000; stroke-miterlimit:1.000;" />
    <path d="M 3100.000 195.000  C 3100.000 195.000 3105.053 194.698 3109.000 195.000 C 3112.947 195.302 3117.836 196.682 3122.000 197.000 C 3126.164 197.318 3133.000 197.000 3133.000 197.000" style="stroke:rgb(0,0,0); fill:none; stroke-linecap:round; stroke-linejoin:round; stroke-width:10.000; stroke-miterlimit:1.000;" />
    <path d="M 3001.000 563.000  C 3001.000 563.000 3005.843 565.073 3009.000 565.000 C 3012.157 564.927 3015.563 562.825 3019.000 562.000 C 3022.556 561.146 3026.318 560.332 3030.000 560.000 C 3033.652 559.671 3037.192 559.709 3041.000 560.000 C 3045.164 560.318 3049.598 561.190 3054.000 562.000 C 3058.592 562.844 3063.236 564.173 3068.000 565.000 C 3072.897 565.850 3077.193 567.111 3083.000 567.000 C 3091.098 566.845 3105.095 561.834 3112.000 562.000 C 3115.865 562.093 3119.954 562.051 3121.000 564.000 C 3122.046 565.949 3116.000 577.000 3116.000 577.000" style="stroke:rgb(0,0,0); fill:none; stroke-linecap:round; stroke-linejoin:round; stroke-width:10.000; stroke-miterlimit:1.000;" />
    <path d="M 2989.000 313.000  C 2989.000 313.000 2996.517 313.814 3001.000 314.000 C 3005.483 314.186 3010.982 314.000 3015.000 314.000 C 3018.037 314.000 3020.422 314.000 3023.000 314.000 C 3025.578 314.000 3030.000 314.000 3030.000 314.000" style="stroke:rgb(0,0,0); fill:none; stroke-linecap:round; stroke-linejoin:round; stroke-width:10.000; stroke-miterlimit:1.000;" />
    <path d="M 1298.000 350.000  C 1298.000 350.000 1289.333 352.298 1286.000 356.000 C 1282.667 359.702 1281.370 367.387 1280.000 372.000 C 1278.994 375.389 1277.958 377.790 1278.000 381.000 C 1278.049 384.718 1279.655 389.146 1281.000 393.000 C 1282.329 396.809 1283.910 400.758 1286.000 404.000 C 1287.961 407.041 1290.267 409.986 1293.000 412.000 C 1295.630 413.938 1298.586 415.402 1302.000 416.000 C 1306.076 416.714 1311.773 417.026 1316.000 415.000 C 1320.932 412.637 1324.794 406.329 1329.000 401.000 C 1333.835 394.875 1338.513 386.730 1343.000 380.000 C 1347.154 373.769 1352.042 367.527 1355.000 362.000 C 1357.293 357.716 1359.503 353.657 1360.000 350.000 C 1360.392 347.120 1359.963 344.466 1359.000 342.000 C 1358.005 339.453 1356.585 336.944 1354.000 335.000 C 1350.258 332.185 1342.229 329.456 1337.000 329.000 C 1332.704 328.625 1329.105 329.934 1325.000 331.000 C 1320.462 332.179 1315.438 333.722 1311.000 336.000 C 1306.423 338.350 1301.476 341.712 1298.000 345.000 C 1294.524 348.288 1291.000 354.000 1291.000 354.000" style="stroke:rgb(0,0,0); fill:none; stroke-linecap:round; stroke-linejoin:round; stroke-width:10.000; stroke-miterlimit:1.000;" />
    <path d="M 2861.000 428.000  C 2861.000 428.000 2864.101 428.703 2870.000 430.000 C 2875.899 431.297 2886.879 434.342 2893.000 435.000 C 2896.990 435.429 2900.379 436.484 2903.000 435.000 C 2905.621 433.516 2909.000 425.000 2909.000 425.000" style="stroke:rgb(0,0,0); fill:none; stroke-linecap:round; stroke-linejoin:round; stroke-width:10.000; stroke-miterlimit:1.000;" />
    <path d="M 1412.000 596.000  C 1412.000 596.000 1413.981 586.792 1416.000 582.000 C 1418.019 577.208 1421.791 571.866 1424.000 568.000 C 1425.562 565.266 1426.116 563.572 1428.000 561.000 C 1430.791 557.190 1437.209 551.810 1440.000 548.000 C 1441.884 545.428 1442.567 543.397 1444.000 541.000 C 1445.550 538.407 1447.075 535.592 1449.000 533.000 C 1451.043 530.249 1453.902 528.007 1456.000 525.000 C 1458.278 521.735 1460.073 518.246 1462.000 514.000 C 1464.450 508.603 1466.495 500.230 1469.000 495.000 C 1470.901 491.031 1472.773 488.057 1475.000 485.000 C 1477.126 482.081 1479.742 479.881 1482.000 477.000 C 1484.420 473.913 1486.573 470.402 1489.000 467.000 C 1491.562 463.409 1494.796 459.782 1497.000 456.000 C 1499.078 452.436 1499.825 448.977 1502.000 445.000 C 1504.815 439.852 1508.048 434.013 1513.000 428.000 C 1519.864 419.666 1534.796 407.092 1541.000 401.000 C 1544.130 397.927 1545.142 396.558 1548.000 394.000 C 1551.981 390.436 1558.505 385.596 1563.000 382.000 C 1566.670 379.064 1569.746 376.567 1573.000 374.000 C 1576.070 371.578 1579.122 368.927 1582.000 367.000 C 1584.420 365.379 1586.570 364.300 1589.000 363.000 C 1591.559 361.630 1593.742 360.350 1597.000 359.000 C 1601.745 357.034 1609.017 354.334 1615.000 353.000 C 1620.682 351.733 1627.220 351.280 1632.000 351.000 C 1635.466 350.797 1638.038 350.519 1641.000 351.000 C 1644.041 351.493 1647.281 352.616 1650.000 354.000 C 1652.589 355.318 1654.667 357.333 1657.000 359.000 C 1659.333 360.667 1661.439 362.041 1664.000 364.000 C 1667.291 366.518 1671.709 370.482 1675.000 373.000 C 1677.561 374.959 1679.636 376.129 1682.000 378.000 C 1684.628 380.080 1687.536 382.390 1690.000 385.000 C 1692.551 387.703 1694.538 391.040 1697.000 394.000 C 1699.530 397.042 1702.198 400.421 1705.000 403.000 C 1707.554 405.350 1710.495 406.827 1713.000 409.000 C 1715.493 411.162 1717.667 413.667 1720.000 416.000 C 1722.333 418.333 1724.387 420.661 1727.000 423.000 C 1729.972 425.660 1733.626 428.473 1737.000 431.000 C 1740.294 433.467 1743.163 435.379 1747.000 438.000 C 1752.108 441.490 1760.352 447.128 1765.000 450.000 C 1767.837 451.754 1769.604 452.991 1772.000 454.000 C 1774.277 454.959 1776.662 454.960 1779.000 456.000 C 1781.661 457.183 1784.148 459.832 1787.000 461.000 C 1789.819 462.154 1792.986 462.499 1796.000 463.000 C 1798.987 463.496 1802.191 463.643 1805.000 464.000 C 1807.482 464.315 1809.400 464.933 1812.000 465.000 C 1815.250 465.083 1819.417 464.163 1823.000 464.000 C 1826.409 463.845 1829.875 464.385 1833.000 464.000 C 1835.838 463.651 1837.863 462.943 1841.000 462.000 C 1845.638 460.605 1852.987 458.020 1858.000 456.000 C 1862.104 454.346 1864.577 453.337 1869.000 451.000 C 1876.283 447.152 1890.507 438.000 1897.000 434.000 C 1900.484 431.853 1901.946 431.278 1905.000 429.000 C 1909.735 425.469 1915.880 419.056 1922.000 414.000 C 1928.777 408.401 1938.052 401.376 1944.000 397.000 C 1947.941 394.100 1950.536 392.510 1954.000 390.000 C 1957.840 387.217 1961.930 384.092 1966.000 381.000 C 1970.256 377.767 1974.454 374.258 1979.000 371.000 C 1983.766 367.584 1988.975 364.864 1994.000 361.000 C 1999.635 356.667 2005.185 351.167 2011.000 346.000 C 2017.167 340.521 2023.661 334.290 2030.000 329.000 C 2035.995 323.997 2042.415 319.930 2048.000 315.000 C 2053.386 310.245 2057.878 304.959 2063.000 300.000 C 2068.208 294.958 2072.614 290.912 2079.000 285.000 C 2088.390 276.306 2103.139 264.371 2114.000 253.000 C 2124.796 241.696 2132.632 229.712 2144.000 217.000 C 2157.684 201.699 2180.894 179.216 2191.000 168.000 C 2201.106 156.784 2202.000 155.000 2202.000 155.000" style="stroke:rgb(0,0,0); fill:none; stroke-linecap:round; stroke-linejoin:round; stroke-width:10.000; stroke-miterlimit:1.000;" />
    <path d="M 2673.000 340.000  C 2673.000 340.000 2682.988 340.511 2686.000 341.000 C 2689.012 341.489 2690.995 342.395 2694.000 343.000 C 2697.795 343.765 2703.331 344.456 2707.000 345.000 C 2709.690 345.399 2711.482 346.189 2714.000 346.000 C 2716.518 345.811 2724.000 343.000 2724.000 343.000" style="stroke:rgb(0,0,0); fill:none; stroke-linecap:round; stroke-linejoin:round; stroke-width:10.000; stroke-miterlimit:1.000;" />
    <path d="M 1621.000 353.000  C 1621.000 353.000 1622.783 351.320 1628.000 350.000 C 1633.217 348.680 1643.243 348.307 1650.000 348.000 C 1655.751 347.739 1661.589 348.275 1666.000 348.000 C 1669.131 347.805 1671.333 347.333 1674.000 347.000 C 1676.667 346.667 1679.115 346.180 1682.000 346.000 C 1685.369 345.790 1689.631 346.210 1693.000 346.000 C 1696.369 345.790 1701.000 345.000 1701.000 345.000" style="stroke:rgb(0,0,0); fill:none; stroke-linecap:round; stroke-linejoin:round; stroke-width:10.000; stroke-miterlimit:1.000;" />
    <path d="M 2057.000 309.000  C 2057.000 309.000 2060.387 308.864 2065.000 309.000 C 2069.613 309.136 2077.079 309.855 2082.000 310.000 C 2085.771 310.111 2088.858 309.804 2092.000 310.000 C 2094.821 310.176 2097.424 310.655 2100.000 311.000 C 2102.413 311.323 2104.514 311.823 2107.000 312.000 C 2109.486 312.177 2116.000 312.000 2116.000 312.000" style="stroke:rgb(0,0,0); fill:none; stroke-linecap:round; stroke-linejoin:round; stroke-width:10.000; stroke-miterlimit:1.000;" />
    <path d="M 2160.000 217.000  C 2160.000 217.000 2166.524 216.137 2169.000 216.000 C 2171.476 215.863 2173.198 215.825 2176.000 216.000 C 2180.253 216.265 2187.288 217.942 2192.000 218.000 C 2195.720 218.046 2198.960 217.152 2202.000 217.000 C 2204.537 216.873 2206.667 217.000 2209.000 217.000 C 2211.333 217.000 2216.000 217.000 2216.000 217.000" style="stroke:rgb(0,0,0); fill:none; stroke-linecap:round; stroke-linejoin:round; stroke-width:10.000; stroke-miterlimit:1.000;" />
    <path d="M 1343.000 435.000  C 1343.000 435.000 1347.179 435.486 1350.000 436.000 C 1352.821 436.514 1355.906 437.503 1359.000 438.000 C 1362.231 438.519 1366.837 437.335 1369.000 439.000 C 1370.995 440.535 1372.674 444.553 1372.000 447.000 C 1371.175 449.996 1365.606 451.883 1362.000 455.000 C 1357.436 458.945 1351.421 465.928 1347.000 469.000 C 1344.081 471.028 1338.863 471.825 1339.000 473.000 C 1339.192 474.642 1350.935 475.944 1356.000 477.000 C 1360.052 477.845 1363.351 479.158 1367.000 479.000 C 1370.649 478.842 1378.000 476.000 1378.000 476.000" style="stroke:rgb(0,0,0); fill:none; stroke-linecap:round; stroke-linejoin:round; stroke-width:10.000; stroke-miterlimit:1.000;" />
    <path d="M 191.000 328.000  C 191.000 328.000 191.308 333.275 191.000 337.000 C 190.692 340.725 190.469 344.016 189.000 349.000 C 186.326 358.073 177.526 375.241 173.000 386.000 C 169.524 394.262 167.063 400.867 164.000 408.000 C 161.058 414.852 157.772 421.037 155.000 428.000 C 152.080 435.337 150.118 444.729 147.000 451.000 C 144.601 455.826 140.919 459.457 139.000 463.000 C 137.081 466.543 136.000 470.000 136.000 470.000" style="stroke:rgb(0,0,0); fill:none; stroke-linecap:round; stroke-linejoin:round; stroke-width:10.000; stroke-miterlimit:1.000;" />
    <path d="M 217.000 457.000  C 217.000 457.000 217.161 462.084 217.000 465.000 C 216.839 467.916 216.182 470.720 216.000 474.000 C 215.782 477.931 216.000 483.332 216.000 487.000 C 216.000 489.692 215.841 493.991 216.000 494.000 C 216.256 494.014 217.701 481.401 218.000 476.000 C 218.243 471.603 218.000 467.913 218.000 464.000 C 218.000 460.254 218.000 456.375 218.000 453.000 C 218.000 449.625 218.000 445.000 218.000 445.000" style="stroke:rgb(0,0,0); fill:none; stroke-linecap:round; stroke-linejoin:round; stroke-width:10.000; stroke-miterlimit:1.000;" />
    <path d="M 385.000 579.000  C 385.000 579.000 390.309 577.838 393.000 577.000 C 395.691 576.162 398.406 574.856 401.000 574.000 C 403.395 573.210 405.643 572.330 408.000 572.000 C 410.311 571.676 412.667 572.000 415.000 572.000 C 417.333 572.000 419.524 572.137 422.000 572.000 C 424.816 571.844 428.184 571.156 431.000 571.000 C 433.476 570.863 435.594 570.850 438.000 571.000 C 440.583 571.161 443.442 572.197 446.000 572.000 C 448.431 571.812 450.445 570.619 453.000 570.000 C 456.023 569.267 459.509 568.640 463.000 568.000 C 466.812 567.301 471.417 566.745 475.000 566.000 C 477.950 565.387 480.410 564.507 483.000 564.000 C 485.399 563.530 487.400 563.304 490.000 563.000 C 493.250 562.620 497.417 562.162 501.000 562.000 C 504.409 561.845 507.858 562.196 511.000 562.000 C 513.821 561.824 516.424 560.977 519.000 561.000 C 521.413 561.021 523.661 561.834 526.000 562.000 C 528.327 562.165 530.607 562.295 533.000 562.000 C 535.597 561.680 538.410 560.507 541.000 560.000 C 543.590 559.493 548.000 559.000 548.000 559.000" style="stroke:rgb(0,0,0); fill:none; stroke-linecap:round; stroke-linejoin:round; stroke-width:10.000; stroke-miterlimit:1.000;" />
    <path d="M 1430.000 588.000  C 1430.000 588.000 1436.038 585.481 1439.000 585.000 C 1441.962 584.519 1445.000 585.000 1448.000 585.000 C 1451.000 585.000 1454.018 585.327 1457.000 585.000 C 1460.018 584.669 1463.179 583.514 1466.000 583.000 C 1468.471 582.550 1470.518 582.315 1473.000 582.000 C 1475.809 581.643 1479.191 581.357 1482.000 581.000 C 1484.482 580.685 1486.466 579.930 1489.000 580.000 C 1491.534 580.070 1499.000 582.000 1499.000 582.000" style="stroke:rgb(0,0,0); fill:none; stroke-linecap:round; stroke-linejoin:round; stroke-width:10.000; stroke-miterlimit:1.000;" />
    <path d="M 2379.000 432.000  C 2379.000 432.000 2387.241 430.818 2391.000 431.000 C 2394.759 431.182 2400.900 431.061 2402.000 433.000 C 2402.961 434.695 2400.516 438.464 2399.000 441.000 C 2397.309 443.829 2394.333 446.333 2392.000 449.000 C 2389.667 451.667 2385.977 453.947 2385.000 457.000 C 2384.051 459.968 2384.593 464.303 2386.000 467.000 C 2387.348 469.583 2390.699 470.620 2393.000 473.000 C 2395.712 475.805 2400.054 479.651 2401.000 483.000 C 2401.750 485.657 2400.979 488.369 2400.000 491.000 C 2398.866 494.048 2396.257 497.076 2394.000 500.000 C 2391.619 503.085 2389.073 507.194 2386.000 509.000 C 2383.311 510.581 2379.866 512.208 2377.000 511.000 C 2372.309 509.023 2366.393 496.779 2364.000 490.000 C 2361.607 483.221 2362.000 474.000 2362.000 474.000" style="stroke:rgb(0,0,0); fill:none; stroke-linecap:round; stroke-linejoin:round; stroke-width:10.000; stroke-miterlimit:1.000;" />
    <path d="M 3045.000 252.000  C 3045.000 252.000 3048.771 251.719 3053.000 252.000 C 3057.229 252.281 3062.574 253.898 3068.000 254.000 C 3074.406 254.120 3083.947 253.290 3089.000 252.000 C 3094.053 250.710 3096.000 249.000 3096.000 249.000" style="stroke:rgb(0,0,0); fill:none; stroke-linecap:round; stroke-linejoin:round; stroke-width:10.000; stroke-miterlimit:1.000;" />
    <path d="M 1000.000 271.000  C 1000.000 271.000 1007.056 272.279 1012.000 273.000 C 1016.944 273.721 1023.755 275.037 1028.000 275.000 C 1030.811 274.975 1032.661 274.166 1035.000 274.000 C 1037.328 273.835 1039.667 274.000 1042.000 274.000 C 1044.333 274.000 1046.672 273.835 1049.000 274.000 C 1051.339 274.166 1053.667 274.667 1056.000 275.000 C 1058.333 275.333 1060.661 275.834 1063.000 276.000 C 1065.327 276.165 1067.407 276.118 1070.000 276.000 C 1073.257 275.852 1077.329 275.166 1081.000 275.000 C 1084.663 274.834 1088.631 274.790 1092.000 275.000 C 1094.885 275.180 1097.424 276.023 1100.000 276.000 C 1102.413 275.979 1104.587 275.021 1107.000 275.000 C 1109.576 274.977 1112.328 275.834 1115.000 276.000 C 1117.672 276.166 1123.000 276.000 1123.000 276.000" style="stroke:rgb(0,0,0); fill:none; stroke-linecap:round; stroke-linejoin:round; stroke-width:10.000; stroke-miterlimit:1.000;" />
    <path d="M 2601.000 380.000  C 2601.000 380.000 2605.179 378.892 2608.000 379.000 C 2610.821 379.108 2614.000 380.333 2617.000 381.000 C 2620.000 381.667 2623.172 382.690 2626.000 383.000 C 2628.828 383.310 2633.000 383.000 2633.000 383.000" style="stroke:rgb(0,0,0); fill:none; stroke-linecap:round; stroke-linejoin:round; stroke-width:10.000; stroke-miterlimit:1.000;" />
    <path d="M 789.000 477.000  C 789.000 477.000 795.311 473.398 798.000 473.000 C 800.689 472.602 803.371 473.352 806.000 474.000 C 808.706 474.667 811.211 476.333 814.000 477.000 C 816.871 477.686 819.920 477.983 823.000 478.000 C 826.245 478.018 829.446 477.314 833.000 477.000 C 837.048 476.642 842.330 476.141 846.000 476.000 C 848.689 475.897 850.594 476.150 853.000 476.000 C 855.583 475.839 858.442 475.522 861.000 475.000 C 863.431 474.504 865.510 473.632 868.000 473.000 C 870.802 472.289 873.727 471.741 877.000 471.000 C 880.938 470.108 886.312 468.420 890.000 468.000 C 892.672 467.696 894.407 468.118 897.000 468.000 C 900.257 467.852 904.250 467.170 908.000 467.000 C 911.909 466.823 916.221 466.445 920.000 467.000 C 923.525 467.517 926.239 469.685 930.000 470.000 C 934.673 470.391 941.421 468.285 946.000 468.000 C 950.579 467.715 955.000 468.000 955.000 468.000" style="stroke:rgb(0,0,0); fill:none; stroke-linecap:round; stroke-linejoin:round; stroke-width:10.000; stroke-miterlimit:1.000;" />
    <path d="M 2480.000 528.000  C 2486.500 526.500 2486.500 526.500 2495.000 527.000" style="stroke:rgb(0,0,0); fill:none; stroke-linecap:round; stroke-linejoin:round; stroke-width:10.000; stroke-miterlimit:1.000;" />
    <path d="M 2464.000 110.000  C 2464.000 110.000 2459.631 112.131 2455.000 115.000 C 2450.369 117.869 2444.098 122.250 2439.000 126.000 C 2434.118 129.591 2429.046 134.934 2425.000 137.000 C 2422.413 138.321 2418.211 139.426 2418.000 139.000 C 2417.752 138.501 2423.124 134.507 2426.000 133.000 C 2428.801 131.532 2431.913 130.977 2435.000 130.000 C 2438.238 128.975 2441.725 127.668 2445.000 127.000 C 2448.050 126.378 2453.120 124.697 2454.000 126.000 C 2455.124 127.664 2448.712 134.867 2447.000 139.000 C 2445.561 142.475 2444.667 145.478 2444.000 149.000 C 2443.283 152.782 2443.482 156.928 2443.000 161.000 C 2442.496 165.255 2441.206 169.430 2441.000 174.000 C 2440.772 179.045 2441.680 184.437 2442.000 190.000 C 2442.349 196.061 2443.181 202.760 2443.000 209.000 C 2442.823 215.088 2441.803 220.850 2441.000 227.000 C 2440.152 233.499 2439.203 240.529 2438.000 247.000 C 2436.852 253.179 2434.672 258.881 2434.000 265.000 C 2433.318 271.211 2434.181 277.845 2434.000 284.000 C 2433.829 289.827 2433.324 295.175 2433.000 301.000 C 2432.657 307.157 2431.981 313.843 2432.000 320.000 C 2432.018 325.825 2433.021 331.511 2433.000 337.000 C 2432.980 342.157 2432.020 346.843 2432.000 352.000 C 2431.979 357.489 2433.414 362.474 2433.000 369.000 C 2432.428 378.024 2427.792 392.477 2427.000 401.000 C 2426.481 406.589 2427.000 410.513 2427.000 415.000 C 2427.000 419.154 2427.148 422.849 2427.000 427.000 C 2426.840 431.490 2426.333 436.333 2426.000 441.000 C 2425.667 445.667 2425.156 450.612 2425.000 455.000 C 2424.861 458.885 2425.000 462.421 2425.000 466.000 C 2425.000 469.413 2425.000 472.587 2425.000 476.000 C 2425.000 479.579 2425.000 483.333 2425.000 487.000 C 2425.000 490.667 2424.844 494.257 2425.000 498.000 C 2425.163 501.916 2425.678 505.845 2426.000 510.000 C 2426.347 514.486 2427.026 519.514 2427.000 524.000 C 2426.975 528.155 2426.035 531.776 2426.000 536.000 C 2425.961 540.720 2426.654 546.180 2427.000 551.000 C 2427.322 555.489 2427.253 559.988 2428.000 564.000 C 2428.669 567.590 2430.110 570.961 2431.000 574.000 C 2431.743 576.538 2432.368 578.510 2433.000 581.000 C 2433.632 583.490 2435.000 590.000 2435.000 590.000" style="stroke:rgb(0,0,0); fill:none; stroke-linecap:round; stroke-linejoin:round; stroke-width:10.000; stroke-miterlimit:1.000;" />
    <path d="M 1366.000 584.000  C 1366.000 584.000 1378.948 587.155 1383.000 588.000 C 1387.052 588.845 1390.167 589.505 1394.000 590.000 C 1398.139 590.534 1402.608 590.363 1407.000 591.000 C 1411.602 591.667 1416.152 593.333 1421.000 594.000 C 1426.130 594.706 1431.955 594.455 1437.000 595.000 C 1441.570 595.493 1445.852 596.304 1450.000 597.000 C 1453.824 597.642 1457.098 598.507 1461.000 599.000 C 1465.372 599.552 1470.727 600.061 1475.000 600.000 C 1478.615 599.949 1481.325 599.183 1485.000 599.000 C 1489.490 598.776 1495.113 599.518 1500.000 599.000 C 1504.775 598.494 1508.533 597.172 1514.000 596.000 C 1521.732 594.343 1534.581 590.786 1542.000 590.000 C 1546.802 589.491 1550.091 590.177 1554.000 590.000 C 1557.750 589.830 1561.253 589.014 1565.000 589.000 C 1568.912 588.985 1573.179 589.841 1577.000 590.000 C 1580.482 590.145 1583.591 589.845 1587.000 590.000 C 1590.583 590.162 1594.344 590.502 1598.000 591.000 C 1601.678 591.501 1605.333 592.333 1609.000 593.000 C 1612.667 593.667 1616.406 594.676 1620.000 595.000 C 1623.399 595.306 1626.875 595.385 1630.000 595.000 C 1632.838 594.651 1635.051 593.614 1638.000 593.000 C 1641.583 592.255 1646.170 591.317 1650.000 591.000 C 1653.473 590.713 1656.852 591.000 1660.000 591.000 C 1662.815 591.000 1665.259 590.848 1668.000 591.000 C 1670.916 591.162 1674.105 592.195 1677.000 592.000 C 1679.762 591.814 1681.970 590.811 1685.000 590.000 C 1689.026 588.922 1694.729 587.251 1699.000 586.000 C 1702.617 584.941 1705.407 583.527 1709.000 583.000 C 1713.010 582.411 1717.589 582.843 1722.000 583.000 C 1726.583 583.164 1730.504 583.425 1736.000 584.000 C 1743.937 584.830 1757.418 587.480 1765.000 588.000 C 1769.854 588.333 1773.087 588.000 1777.000 588.000 C 1780.746 588.000 1784.421 588.000 1788.000 588.000 C 1791.413 588.000 1794.759 588.180 1798.000 588.000 C 1801.084 587.829 1803.995 587.166 1807.000 587.000 C 1809.995 586.834 1813.094 587.181 1816.000 587.000 C 1818.751 586.829 1821.119 586.049 1824.000 586.000 C 1827.373 585.943 1831.333 587.000 1835.000 587.000 C 1838.667 587.000 1842.362 586.656 1846.000 586.000 C 1849.696 585.333 1853.333 584.000 1857.000 583.000 C 1860.667 582.000 1864.147 580.667 1868.000 580.000 C 1872.120 579.286 1876.586 579.327 1881.000 579.000 C 1885.580 578.660 1890.250 578.169 1895.000 578.000 C 1899.911 577.825 1905.086 578.000 1910.000 578.000 C 1914.747 578.000 1919.423 578.176 1924.000 578.000 C 1928.417 577.830 1932.511 577.023 1937.000 577.000 C 1941.820 576.975 1946.850 578.130 1952.000 578.000 C 1957.496 577.861 1963.612 576.702 1969.000 576.000 C 1973.897 575.362 1978.094 574.349 1983.000 574.000 C 1988.379 573.618 1994.422 573.826 2000.000 574.000 C 2005.417 574.169 2009.974 575.035 2016.000 575.000 C 2023.831 574.955 2034.786 573.088 2043.000 573.000 C 2049.886 572.926 2055.962 573.278 2062.000 574.000 C 2067.585 574.668 2073.293 576.088 2078.000 577.000 C 2081.726 577.722 2084.844 578.488 2088.000 579.000 C 2091.156 579.512 2096.000 580.000 2096.000 580.000" style="stroke:rgb(0,0,0); fill:none; stroke-linecap:round; stroke-linejoin:round; stroke-width:10.000; stroke-miterlimit:1.000;" />
    <path d="M 108.000 381.000  C 108.000 381.000 104.265 385.080 103.000 388.000 C 101.735 390.920 101.521 394.956 101.000 398.000 C 100.566 400.534 99.697 402.708 100.000 405.000 C 100.315 407.378 101.592 409.613 103.000 412.000 C 104.723 414.920 107.288 418.480 110.000 421.000 C 112.641 423.455 115.691 425.229 119.000 427.000 C 122.628 428.942 126.972 430.492 131.000 432.000 C 134.973 433.488 138.876 435.650 143.000 436.000 C 147.205 436.356 151.881 435.762 156.000 434.000 C 160.600 432.032 164.994 427.675 169.000 424.000 C 172.991 420.339 176.647 416.200 180.000 412.000 C 183.305 407.861 187.417 403.363 189.000 399.000 C 190.323 395.354 190.469 391.615 190.000 388.000 C 189.517 384.279 188.067 380.719 186.000 377.000 C 183.450 372.413 178.723 366.037 175.000 363.000 C 172.361 360.848 169.740 359.829 167.000 359.000 C 164.399 358.212 162.025 357.869 159.000 358.000 C 154.969 358.175 149.155 359.361 145.000 361.000 C 141.250 362.479 138.356 364.278 135.000 367.000 C 130.704 370.484 125.790 376.828 122.000 381.000 C 118.991 384.312 116.530 386.958 114.000 390.000 C 111.538 392.960 109.156 395.853 107.000 399.000 C 104.844 402.147 101.000 409.000 101.000 409.000" style="stroke:rgb(0,0,0); fill:none; stroke-linecap:round; stroke-linejoin:round; stroke-width:10.000; stroke-miterlimit:1.000;" />
    <path d="M 1721.000 402.000  C 1721.000 402.000 1725.275 398.724 1728.000 398.000 C 1730.725 397.276 1734.000 398.000 1737.000 398.000 C 1740.000 398.000 1742.679 398.236 1746.000 398.000 C 1750.163 397.704 1756.157 395.738 1760.000 396.000 C 1763.843 396.262 1767.000 398.000 1767.000 398.000" style="stroke:rgb(0,0,0); fill:none; stroke-linecap:round; stroke-linejoin:round; stroke-width:10.000; stroke-miterlimit:1.000;" />
    <path d="M 3147.000 141.000  C 3147.000 141.000 3151.194 139.035 3155.000 139.000 C 3158.806 138.965 3164.087 140.899 3168.000 142.000 C 3171.299 142.928 3174.159 144.329 3177.000 145.000 C 3179.452 145.579 3181.661 145.834 3184.000 146.000 C 3186.339 146.166 3191.000 146.000 3191.000 146.000" style="stroke:rgb(0,0,0); fill:none; stroke-linecap:round; stroke-linejoin:round; stroke-width:10.000; stroke-miterlimit:1.000;" />
    <path d="M 1832.000 487.000  C 1832.000 487.000 1835.102 486.071 1841.000 486.000 C 1846.898 485.929 1857.902 487.735 1864.000 488.000 C 1868.013 488.174 1870.527 488.287 1874.000 488.000 C 1877.830 487.683 1881.918 486.654 1886.000 486.000 C 1890.245 485.320 1894.755 484.680 1899.000 484.000 C 1903.082 483.346 1907.533 482.040 1911.000 482.000 C 1914.467 481.960 1918.000 483.000 1918.000 483.000" style="stroke:rgb(0,0,0); fill:none; stroke-linecap:round; stroke-linejoin:round; stroke-width:10.000; stroke-miterlimit:1.000;" />
    <path d="M 2421.000 263.000  C 2421.000 263.000 2418.961 267.375 2417.000 271.000 C 2415.039 274.625 2412.357 278.421 2410.000 283.000 C 2407.038 288.753 2404.325 296.150 2401.000 303.000 C 2397.384 310.450 2392.910 317.673 2389.000 326.000 C 2384.550 335.478 2380.272 346.015 2376.000 357.000 C 2371.257 369.196 2366.947 383.424 2362.000 396.000 C 2357.258 408.056 2351.637 420.323 2347.000 431.000 C 2343.073 440.043 2338.763 448.257 2336.000 456.000 C 2333.237 463.743 2331.000 474.000 2331.000 474.000" style="stroke:rgb(0,0,0); fill:none; stroke-linecap:round; stroke-linejoin:round; stroke-width:10.000; stroke-miterlimit:1.000;" />
    <path d="M 2447.000 570.000  C 2459.500 568.000 2459.500 568.000 2466.000 570.000" style="stroke:rgb(0,0,0); fill:none; stroke-linecap:round; stroke-linejoin:round; stroke-width:10.000; stroke-miterlimit:1.000;" />
</g>
</svg>
